<?xml version="1.0" encoding="utf-8"?>
<!-- Generator: Adobe Illustrator 24.1.2, SVG Export Plug-In . SVG Version: 6.00 Build 0)  -->
<svg version="1.1" id="Komponente_3_1" xmlns="http://www.w3.org/2000/svg" xmlns:xlink="http://www.w3.org/1999/xlink" x="0px"
	 y="0px" viewBox="0 0 361.1 434.1" style="enable-background:new 0 0 361.1 434.1;" xml:space="preserve">
<style type="text/css">
	.st0{fill:#FFFFFF;}
</style>
<path id="Pfad_1" class="st0" d="M246.4,175.4c0.9-2.7-0.6-3.1-0.6-5.4s-2.9-4.2-6.5-4s-4.9,2.7-4.5,6.5c0.4,3.5,1.8,4.8,2.3,7.1
	c0.2,1.2,0,2.4-0.6,3.5c0,0-0.4-0.2-0.9-0.4c-1-0.5-2.1-0.9-3.2-1.2c-3.1-0.5-6.3-0.7-9.5-0.8c-2.1,0-7.3-0.5-7.3-0.5
	s0.6-3.2-1.4-4.8c-1.6-1.2-3.5-2-5.4-2.6c0,0,3.8-18.8,5.3-61.7S192.9,0,192.9,0l-2.6,1.6l-1.6-0.4L188,2.9c0,0-1.8,0.4-8,1.9
	s-14.5,6-14.5,6c-0.8,4.6-1.2,9.2-1.3,13.8c0,6-3.6,34.8-5.2,51.4s-5.2,51.7-6.6,67.1s-4.8,60.9-4.8,60.9l-4.4,4.7
	c1.8,1.5,3.2,3.4,3.9,5.6c7.8,22.8,29.2,27.4,33.5,28c-11.1,3.8-16.7,14.1-17.1,15.4c-0.5,1.4-1.7,3.6,2.9,2.1
	c4.7-1.5,15.8,0.2,26.9-3.3c9.5-1.8,17.6-2.6,17.6-2.6s1,0.9,1.8-2.8s-2.5-6-2.5-6c3.2-1.8,6.4-3.8,9.4-6c6.2-4.3,5-7.3,6.8-10.4
	s11.8-8.8,11.8-8.8s2.4,0,5.3-4.5c6.6-8.8,6.8-15.9,7.3-19.7c2.6-10-1.7-13.7-3.7-14.8S246.3,177.3,246.4,175.4L246.4,175.4z
	 M205.2,195l9.6,1.9c0,0,12.5,3.9,12.4,5.5c-1.6,1.7-2.1,2.8-0.4,5.3c-2.2,2.3-10.4,10.8-11.6,13.6c-2.4,2.9-5.6,4.3-5.4,8.7
	c-2.2,3.6-4.3,7.3-6.1,11.1c0,0-5.4-2.1-10.1-1.6c0.9-3,0.2-0.8,2.4-8.9S205.2,195,205.2,195L205.2,195z M216.8,195.9l2.4-0.5
	l5.3,4.4L216.8,195.9z M209.8,192.4l-1.3-0.9l3.1-2.2l2.6,1.6L209.8,192.4L209.8,192.4z M214.2,179.9c-0.5,0.8-2.3,1.5-0.2,3.4
	c-1.6,3.3-4.5,5.9-8,7.1c0.3-2.9,2.8-13.9,2.8-13.9S213,177.6,214.2,179.9L214.2,179.9z M228.2,186.8c0,0-4.5,2.8-6.9,3.1l-5.7,0.6
	l-2.4-2.4l1.8-2.6c0,0,3.9-2.8,6.1-2.2S228.2,186.8,228.2,186.8L228.2,186.8z M231.1,197c-1.2,2.8-2.2,5.2-2.2,5.2s-6.4-6.7-8.4-7.5
	l9.5-1.5C230.1,193.1,232.3,194.2,231.1,197L231.1,197z"/>
<path id="Pfad_2" class="st0" d="M0.9,353.4c-1,0.4-1.4,1.2,0,2.6c17.2,18.1,36.7,14.5,42.9,6.3c4.6-6.1,4.8-11.3,0.3-14.1
	c-6.6-4.1-21.5-9-21.7-16.4c-0.4-14.1,26.1-33.3,30.2-29.7c2.9,2.6-4.9,12.6-6.9,18.2c-2,5.5-0.4,8.9,1.9,10.9
	c1.3,1.2,2,0.5,2.5-0.5c2.1-4.5,4.4-8.8,6.9-13.1c1.5-2.5,3.9-7.1,2.5-11.5c-1.2-3.6-3.4-6.7-6.3-9.1c-4-3.1-9.3-1.8-14.6,0.8
	c-9.7,5-26.3,19.4-25.2,34.9c0.8,11.6,19.1,17.4,25.5,22c1.8,1.2,2.2,3.7,1,5.5c-0.1,0.1-0.2,0.3-0.3,0.4c-1.4,1.3-3.7,2.3-6.9,2.5
	c-7.3,0.5-15.4-4.8-20.2-8.1C9.1,352.7,4.8,352.1,0.9,353.4L0.9,353.4z M84,353.6c-0.4,6.6,2.8,11,10.1,10.5
	c6.7-0.5,13.2-6.7,16.1-13.2c1.4-3.3,1-6.3,0.5-7.2c-0.5-1-1.5-0.8-2,0.3c-3.8,8.2-9.1,16-13.8,16.6c-4,0.5-4.8-4.2-2.3-10.8
	c2.2-5.9,7.2-14.8,9.4-20c2.3-5.8,1.1-10.7-0.8-12.6c-1-1.1-1.8-0.8-2.8,0.9c-3.3,5.1-6,13.1-12.3,25.1
	c-5.4,10.2-11.1,18.6-15.5,18.5c-2.6,0-3.2-4.1-1.2-9.8c2.1-5.9,4.6-11.7,7.6-17.2c3.6-6.7,3.8-11.8,1.1-15.4
	c-0.6-0.8-1.6-0.9-2.4-0.4c-0.2,0.2-0.4,0.4-0.5,0.7c-6.6,10.8-11.6,22.2-13.6,29.8s-1.2,15.9,6.9,15.9
	C74.8,365.3,80.4,359.2,84,353.6L84,353.6z M132.1,323.6c2.3-7.3,2.8-13.9-0.7-13.5c-4.2,0.4-13,14.4-6.3,18.1
	c-3.8,6.3-10.6,17.4-12.8,22.5c-2.6,6-2.3,11.2,1.2,14.3c1.1,0.9,1.7,0.3,1.9-0.7c1.4-10.4,11.1-27.2,14.9-35.4
	c4.7-0.5,9.2-2.3,12.9-5.2c-4.1,5.5-10.1,14-12.1,21.6c-2.2,8.7,1.6,15.9,9.7,15.6c6-0.2,12.2-5.4,14.3-12.1c1-3.1,0.7-5.8,0.1-7
	c-0.5-0.9-1.2-0.7-1.6,0.2c-3,8.4-8,15.7-12.4,15.8c-3.3,0.1-4.9-4.2-3.5-10.2s6.4-13.5,11.1-19.6c3-4,0-8.7-2.4-10.9
	c-0.9-0.8-1.7-0.6-3,0.4C139.4,320.8,135.7,322.9,132.1,323.6L132.1,323.6z M171.6,335.8c5.3-12.3,12.2-25.6,16.2-33.5
	c4.3-8.6,4.3-13.4,2.7-17.2c-0.5-1.3-2-1.3-2.8,0.1c-11.2,19.6-34.1,64.6-35.5,90c-0.6,9.7,3.1,13.8,6.1,16c3.6,2.7,6.4,2,9.9-3
	c4.9-7.1,9-20,10-31.5c6.6-2.8,11.8-9.9,12.7-12.7c0.8-2.7,1.3-5.2,0.7-6.8c-0.7-1.5-1.8-1.3-2.4,0.1c-2.5,6.1-6.6,12-10.7,15.1
	c0-1.4,0-2.6,0-3.8C178,341,176,336.9,171.6,335.8L171.6,335.8z M172.3,354.6c-2.2-0.3-3.4-2.6-3.5-6.2c-0.1-2.6,0.5-8.6,1.6-9.2
	c0.8-0.4,2.1,3,2.3,7.2C172.8,349.1,172.7,351.8,172.3,354.6L172.3,354.6z M164.7,353.8c1.5,2.6,4.2,4.1,7.2,4
	c-2.6,15.7-10,31.9-12.7,28.8C156.3,383.6,159.4,369.3,164.7,353.8L164.7,353.8z M221.4,309.4c-5.9-3-16.8,3.9-23.1,18.6
	c-6.3,15.1-0.5,28.7,13.8,27.5c8.6-0.7,17.1-6.9,20.9-13.8c1.7-3.2,2-6,1.6-6.9c-0.5-1.1-1.5-0.9-2,0c-4.1,7.4-11.6,17-21.1,17.6
	c-6.7,0.4-9.7-8.8-4.4-22c4.4-10.6,12.3-18.4,14.3-17c1.7,1.1-1.4,6.2-2.3,10.4c-1.2,5.2,0.6,8.5,3.4,9.6c1.5,0.7,1.9,0.3,2.3-1.1
	c1.8-6.2,5.9-12.5,3.2-17.1C226.5,312.6,224.1,310.6,221.4,309.4L221.4,309.4z M249,328.6c9.6-7.2,21.3-21.7,23.8-35.8
	c1-5.4,0-9.5-3.5-12.2c-1.7-1.4-3.2-1-4.8,0.9c-10.7,12.8-22.1,34.1-24.9,54c-1.7,12.4,2.8,17.5,10.6,17.2c9-0.4,16.6-10.3,18-13.8
	c1.1-2.8,1.3-5.3,0.6-7.1c-0.6-1.5-1.8-1.3-2.5,0.2c-3.8,9-11.1,17.7-16.6,17.6C244.7,349.4,245.3,339.9,249,328.6L249,328.6z
	 M250.7,323.6c0.7-1.9,1.4-3.7,2.3-5.6c6.8-15,14.2-28.1,15.8-27.3S265.3,310,250.7,323.6L250.7,323.6z M292.6,339
	c-0.4,6.6,2.8,11,10.1,10.5c6.7-0.5,13.2-6.7,16.1-13.2c1.4-3.3,1-6.3,0.5-7.2c-0.5-1-1.5-0.8-2,0.3c-3.8,8.2-9.1,16-13.8,16.6
	c-4,0.5-4.8-4.2-2.3-10.8c2.2-5.9,7.2-14.8,9.4-20c2.3-5.8,1.1-10.7-0.8-12.6c-1-1.1-1.8-0.8-2.8,0.9c-3.3,5.1-6,13.1-12.3,25.1
	c-5.4,10.2-11.1,18.6-15.5,18.5c-2.6,0-3.2-4.1-1.2-9.8c2.1-5.9,4.6-11.7,7.6-17.2c3.6-6.7,3.8-11.8,1.1-15.4
	c-0.6-0.8-1.6-0.9-2.4-0.4c-0.2,0.2-0.4,0.4-0.5,0.7c-6.6,10.8-11.6,22.2-13.6,29.8s-1.2,15.9,6.9,15.9
	C283.5,350.8,289,344.6,292.6,339L292.6,339z M358,326.5c5.2-14.2,3.9-27.5-5.7-26.8c-2.9,0.2-6.3,2.3-9.4,5.4
	c3.1-6.4,7.4-14.6,8.8-17.8c4-8.8,3.7-13.9,1.8-16.9c-1-1.5-1.9-1.5-2.8,0.1c-7,11.4-26.2,54.6-28.6,64.2c-1.8,7-0.4,10.2,1.4,12.4
	c0.7,0.9,1.4,0.7,1.8-0.5c0.8-2.4,1.9-5.2,2.7-7.7c2.4,4.8,6.4,7.6,12.4,7.2C347,345.6,353.6,338.7,358,326.5L358,326.5z
	 M350.9,304.4c2.6,0,4.4,6.8-1.1,20c-5.6,13.5-10.6,17.3-14.6,16.7c-3.1-0.5-4.8-4-5.3-7.2c3.6-9,8.3-18.7,13-24.4
	C346.2,305.8,348.6,304.4,350.9,304.4L350.9,304.4z"/>
<path id="Pfad_20" class="st0" d="M10.1,407.3c0-0.1,0.1-0.3,0.2-0.3c0,0,0,0,0.1,0h1.5c0.1,0,0.3,0.1,0.3,0.2c0,0,0,0,0,0.1v20.6
	c0,0.1-0.1,0.3-0.2,0.3c0,0,0,0-0.1,0h-1.5c-0.1,0-0.3-0.1-0.3-0.2c0,0,0,0,0-0.1v-9.3c0-0.1,0-0.1-0.1-0.1c0,0,0,0,0,0H2.4
	c-0.1,0-0.1,0-0.1,0.1c0,0,0,0,0,0v9.3c0,0.1-0.1,0.3-0.2,0.3c0,0,0,0-0.1,0H0.5c-0.1,0-0.3-0.1-0.3-0.2c0,0,0,0,0-0.1v-20.6
	c0-0.1,0.1-0.3,0.2-0.3c0,0,0,0,0.1,0H2c0.1,0,0.3,0.1,0.3,0.2c0,0,0,0,0,0.1v9.2c0,0.1,0,0.1,0.1,0.1c0,0,0,0,0,0H10
	c0.1,0,0.1,0,0.1-0.1c0,0,0,0,0,0V407.3z M21.7,412.7c1.4-0.1,2.8,0.4,3.8,1.4c0.9,1,1.4,2.3,1.4,3.7v10.2c0,0.1-0.1,0.3-0.2,0.3
	c0,0,0,0-0.1,0h-1.5c-0.1,0-0.3-0.1-0.3-0.2c0,0,0,0,0-0.1v-1.1c0,0,0-0.1,0-0.1c0,0-0.1,0-0.1,0c-0.4,0.6-1,1-1.7,1.3
	c-0.7,0.3-1.5,0.4-2.3,0.4c-1.2,0-2.3-0.3-3.3-1c-1-0.8-1.5-2.1-1.3-3.4c-0.1-1.4,0.5-2.8,1.6-3.7c1.2-0.9,2.7-1.3,4.3-1.3h2.8
	c0.1,0,0.1,0,0.1-0.1c0,0,0,0,0,0v-1.2c0-0.9-0.2-1.7-0.8-2.4c-0.6-0.6-1.4-1-2.3-0.9c-0.7,0-1.4,0.2-2,0.6
	c-0.5,0.4-0.9,0.9-0.9,1.6c0,0.2-0.1,0.3-0.3,0.3c0,0,0,0,0,0l-1.7-0.1c-0.1,0-0.2,0-0.2-0.1c0-0.1-0.1-0.1,0-0.2
	c0.1-1.1,0.7-2.2,1.7-2.8C19.2,413,20.5,412.6,21.7,412.7z M21,426.6c0.9,0,1.9-0.3,2.6-0.8c0.7-0.5,1.1-1.4,1.1-2.3V421
	c0-0.1,0-0.1-0.1-0.1c0,0,0,0,0,0H22c-1-0.1-2,0.2-2.8,0.8c-0.7,0.6-1.1,1.4-1,2.3c-0.1,0.7,0.2,1.5,0.8,2
	C19.6,426.4,20.3,426.6,21,426.6L21,426.6z M35.9,428.5c-1.3,0-2.6-0.4-3.6-1.2c-1-0.8-1.6-2-1.7-3.2c-0.1-1.2-0.2-2.3-0.2-3.5
	c0-1,0.1-2.2,0.2-3.5c0.1-1.2,0.8-2.4,1.7-3.2c1-0.8,2.3-1.3,3.6-1.2c1.3,0,2.6,0.4,3.6,1.2c0.9,0.7,1.6,1.7,1.7,2.9l0.1,0.6v0.1
	c0,0.1,0,0.1-0.1,0.2c-0.1,0.1-0.1,0.1-0.2,0.1l-1.5,0.1c-0.2,0-0.3-0.1-0.3-0.3c0-0.1,0-0.2,0-0.4c-0.1-0.7-0.5-1.4-1-1.8
	c-0.6-0.5-1.4-0.8-2.2-0.8c-0.8,0-1.6,0.3-2.2,0.8c-0.6,0.6-0.9,1.3-1,2.1c-0.1,1-0.2,2.1-0.2,3.1c0,1,0,2.1,0.2,3.1
	c0.1,0.8,0.4,1.6,1,2.1c0.6,0.5,1.4,0.8,2.2,0.8c0.8,0,1.6-0.2,2.2-0.8c0.6-0.5,0.9-1.1,1-1.8l0-0.2c0-0.2,0.2-0.3,0.3-0.3l1.5,0.1
	c0.2,0,0.3,0.1,0.3,0.3v0.1c0,0.1,0,0.2-0.1,0.4c-0.1,1.2-0.7,2.2-1.7,3C38.6,428.1,37.3,428.5,35.9,428.5z M50.7,412.7
	c1.3-0.1,2.5,0.4,3.3,1.3c0.9,1,1.3,2.3,1.2,3.7v10.2c0,0.1-0.1,0.3-0.2,0.3c0,0,0,0-0.1,0h-1.5c-0.1,0-0.3-0.1-0.3-0.2
	c0,0,0,0,0-0.1V418c0-0.9-0.2-1.8-0.8-2.5c-0.6-0.6-1.4-1-2.2-0.9c-0.9,0-1.7,0.3-2.3,1c-0.6,0.7-0.9,1.6-0.9,2.6v9.8
	c0,0.1-0.1,0.3-0.2,0.3c0,0,0,0-0.1,0h-1.5c-0.1,0-0.3-0.1-0.3-0.2c0,0,0,0,0-0.1v-20.6c0-0.1,0.1-0.3,0.2-0.3c0,0,0,0,0.1,0h1.5
	c0.1,0,0.3,0.1,0.3,0.2c0,0,0,0,0,0.1v7.1c0,0,0,0.1,0,0.1c0,0,0.1,0,0.1,0C47.9,413.3,49.3,412.6,50.7,412.7L50.7,412.7z
	 M64.5,426.6c0.7,0,1.4-0.2,2-0.6c0.6-0.4,1-0.9,1.2-1.6c0-0.2,0.2-0.3,0.3-0.2c0,0,0,0,0,0l1.4,0.3c0.1,0,0.2,0.1,0.2,0.1
	c0,0.1,0,0.2,0,0.2c-0.3,1.1-1,2-1.9,2.7c-1,0.7-2.1,1-3.3,1c-1.3,0.1-2.6-0.4-3.6-1.2c-0.9-0.8-1.6-1.9-1.7-3.2
	c-0.1-0.6-0.1-1.2-0.2-1.8c0-0.7,0-1.3,0-1.7v-1c0-0.8,0-1.7,0.1-2.5c0.1-1.3,0.7-2.4,1.7-3.3c1-0.8,2.3-1.3,3.6-1.2
	c1.4-0.1,2.7,0.4,3.8,1.3c1,0.9,1.6,2.2,1.6,3.5c0.1,0.7,0.1,1.9,0.1,3.7c0,0.1-0.1,0.3-0.2,0.3c0,0,0,0-0.1,0h-8.4
	c-0.1,0-0.1,0-0.1,0.1c0,0,0,0,0,0c0,0.6,0,1.3,0.1,2.1c0.1,0.8,0.4,1.6,1,2.1C62.8,426.3,63.6,426.6,64.5,426.6z M64.4,414.5
	c-0.8,0-1.6,0.3-2.2,0.8c-0.6,0.6-0.9,1.3-1,2.1c0,0.8-0.1,1.6-0.1,2.1c0,0.1,0,0.1,0.1,0.1c0,0,0,0,0,0h6.4c0.1,0,0.1,0,0.1-0.1
	c0,0,0,0,0,0c0-0.6,0-1.3-0.1-2.1c-0.1-0.8-0.4-1.6-1-2.1C66,414.8,65.2,414.5,64.4,414.5z M79.5,412.7c1.3-0.1,2.5,0.4,3.3,1.3
	c0.9,1,1.3,2.3,1.2,3.7v10.2c0,0.1-0.1,0.3-0.2,0.3c0,0,0,0-0.1,0h-1.5c-0.1,0-0.3-0.1-0.3-0.2c0,0,0,0,0-0.1V418
	c0-0.9-0.2-1.8-0.8-2.5c-0.6-0.6-1.4-1-2.2-0.9c-0.9,0-1.7,0.3-2.3,1c-0.6,0.7-0.9,1.6-0.9,2.6v9.8c0,0.1-0.1,0.3-0.2,0.3
	c0,0,0,0-0.1,0h-1.5c-0.1,0-0.3-0.1-0.3-0.2c0,0,0,0,0-0.1v-14.7c0-0.1,0.1-0.3,0.2-0.3c0,0,0,0,0.1,0h1.5c0.1,0,0.3,0.1,0.3,0.2
	c0,0,0,0,0,0.1v1.2c0,0,0,0.1,0,0.1c0,0,0.1,0,0.1,0C76.6,413.3,78,412.6,79.5,412.7L79.5,412.7z M87.3,419.8
	c-0.1,0-0.3-0.1-0.3-0.2c0,0,0,0,0-0.1v-1.3c0-0.1,0.1-0.3,0.2-0.3c0,0,0,0,0.1,0h7.9c0.1,0,0.3,0.1,0.3,0.2c0,0,0,0,0,0.1v1.3
	c0,0.1-0.1,0.3-0.2,0.3c0,0,0,0-0.1,0L87.3,419.8z M104.2,428.5c-1.6,0.1-3.3-0.4-4.5-1.5c-1.1-1-1.7-2.5-1.7-4v-0.8
	c0-0.1,0.1-0.3,0.2-0.3c0,0,0,0,0.1,0h1.5c0.1,0,0.3,0.1,0.3,0.2c0,0,0,0,0,0.1v0.7c0,1,0.4,2,1.2,2.7c0.9,0.7,1.9,1.1,3.1,1
	c1,0.1,2-0.3,2.8-1c0.7-0.7,1.1-1.6,1-2.5c0-0.6-0.2-1.3-0.5-1.8c-0.4-0.6-0.9-1-1.4-1.4c-0.6-0.4-1.5-1-2.7-1.6c-1-0.5-2-1.1-3-1.8
	c-0.7-0.5-1.3-1.1-1.7-1.8c-0.5-0.8-0.7-1.7-0.7-2.7c-0.1-1.5,0.5-2.9,1.6-3.8c1.2-1,2.7-1.5,4.2-1.4c1.6-0.1,3.2,0.5,4.5,1.5
	c1.1,1.1,1.7,2.6,1.7,4.1v0.7c0,0.1-0.1,0.3-0.2,0.3c0,0,0,0-0.1,0h-1.5c-0.1,0-0.3-0.1-0.3-0.2c0,0,0,0,0-0.1v-0.7
	c0-1-0.4-2-1.1-2.7c-0.8-0.7-1.9-1.1-3-1c-1-0.1-1.9,0.3-2.7,0.9c-0.7,0.7-1,1.6-1,2.5c0,0.6,0.1,1.2,0.5,1.7
	c0.3,0.5,0.8,0.9,1.3,1.3c0.6,0.4,1.5,0.9,2.7,1.5c1.1,0.6,2.1,1.2,3.2,2c0.7,0.5,1.3,1.1,1.8,1.8c0.5,0.8,0.7,1.7,0.7,2.6
	c0.1,1.5-0.5,3-1.6,4C107.5,428,105.9,428.6,104.2,428.5z M119,428.5c-1.3,0.1-2.6-0.4-3.6-1.2c-1-0.8-1.6-2-1.7-3.2
	c-0.1-1.2-0.2-2.3-0.2-3.5c0-1.2,0.1-2.3,0.2-3.5c0.1-1.3,0.8-2.4,1.7-3.2c1-0.8,2.3-1.3,3.7-1.2c1.3-0.1,2.6,0.4,3.7,1.2
	c1,0.8,1.6,2,1.7,3.2c0.1,1.1,0.2,2.3,0.2,3.5c0,1.2,0,2.3-0.2,3.5c-0.1,1.3-0.7,2.4-1.7,3.2C121.7,428.1,120.4,428.5,119,428.5z
	 M119,426.6c0.8,0,1.6-0.3,2.2-0.8c0.6-0.6,1-1.3,1.1-2.1c0.1-1,0.1-2.1,0.1-3.1c0-1,0-2.1-0.1-3.1c-0.1-0.8-0.4-1.6-1-2.1
	c-0.6-0.5-1.4-0.8-2.2-0.8c-0.8,0-1.6,0.3-2.2,0.8c-0.6,0.6-1,1.3-1.1,2.1c-0.1,1-0.1,2.1-0.1,3.1c0,1,0,2.1,0.1,3.1
	c0.1,0.8,0.4,1.6,1,2.1C117.4,426.3,118.2,426.6,119,426.6z M134.1,412.8c0.5,0,1.1,0.1,1.5,0.4c0.1,0.1,0.2,0.2,0.2,0.4l-0.4,1.6
	c0,0.2-0.1,0.3-0.4,0.2c-0.3-0.1-0.7-0.2-1.1-0.2l-0.4,0c-0.9,0-1.7,0.4-2.2,1.2c-0.6,0.8-0.9,1.7-0.9,2.7v9c0,0.1-0.1,0.3-0.2,0.3
	c0,0,0,0-0.1,0h-1.5c-0.1,0-0.3-0.1-0.3-0.2c0,0,0,0,0-0.1v-14.7c0-0.1,0.1-0.3,0.2-0.3c0,0,0,0,0.1,0h1.5c0.1,0,0.3,0.1,0.3,0.2
	c0,0,0,0,0,0.1v2c0,0.1,0,0.1,0,0.1s0.1,0,0.1-0.1c0.3-0.7,0.8-1.3,1.4-1.8C132.7,413,133.4,412.7,134.1,412.8L134.1,412.8z
	 M149.1,416.9c0.3,1.1,0.4,2.3,0.4,3.5c0,1.2-0.1,2.4-0.3,3.6c-0.2,1.3-0.8,2.4-1.7,3.3c-0.9,0.8-2.1,1.1-3.3,1.1
	c-0.7,0-1.4-0.1-2-0.4c-0.5-0.3-1-0.7-1.3-1.2c0-0.1-0.1-0.1-0.1-0.1c0,0-0.1,0-0.1,0.1v7c0,0.1-0.1,0.3-0.2,0.3c0,0,0,0-0.1,0h-1.5
	c-0.1,0-0.3-0.1-0.3-0.2c0,0,0,0,0-0.1v-20.6c0-0.1,0.1-0.3,0.2-0.3c0,0,0,0,0.1,0h1.5c0.1,0,0.3,0.1,0.3,0.2c0,0,0,0,0,0.1v1.2
	c0,0.1,0,0.1,0.1,0.1c0,0,0.1,0,0.1-0.1c0.8-1.2,2.1-1.8,3.5-1.7c1.1-0.1,2.2,0.3,3,1C148.3,414.6,148.9,415.7,149.1,416.9z
	 M146.8,424.6c0.4-1.3,0.6-2.6,0.6-4c0-1.3-0.1-2.6-0.5-3.8c-0.2-0.7-0.6-1.2-1.1-1.7c-0.5-0.4-1.2-0.6-1.8-0.6
	c-0.6,0-1.2,0.2-1.7,0.6c-0.5,0.5-0.8,1-1,1.7c-0.3,1.2-0.5,2.5-0.5,3.8c-0.1,1.3,0.1,2.6,0.5,3.9c0.2,0.6,0.5,1.1,1,1.6
	c0.5,0.4,1,0.6,1.6,0.5C145.2,426.6,146.4,425.8,146.8,424.6z M158.3,426.6c0.7,0,1.4-0.2,2-0.6c0.6-0.4,1-0.9,1.2-1.6
	c0-0.2,0.2-0.3,0.3-0.2c0,0,0,0,0,0l1.4,0.3c0.1,0,0.2,0.1,0.2,0.1c0,0.1,0,0.2,0,0.2c-0.3,1.1-1,2-1.9,2.7c-1,0.7-2.1,1-3.3,1
	c-1.3,0.1-2.6-0.4-3.6-1.2c-0.9-0.8-1.6-1.9-1.7-3.2c-0.1-0.6-0.1-1.2-0.2-1.8c0-0.7,0-1.3,0-1.7v-1c0-0.8,0-1.7,0.1-2.5
	c0.1-1.3,0.7-2.4,1.7-3.3c1-0.8,2.3-1.3,3.6-1.2c1.4-0.1,2.7,0.4,3.8,1.3c1,0.9,1.6,2.2,1.6,3.5c0.1,0.7,0.1,1.9,0.1,3.7
	c0,0.1-0.1,0.3-0.2,0.3c0,0,0,0-0.1,0H155c-0.1,0-0.1,0-0.1,0.1c0,0,0,0,0,0c0,0.6,0,1.3,0.1,2.1c0.1,0.8,0.4,1.6,1,2.1
	C156.7,426.3,157.5,426.6,158.3,426.6z M158.2,414.5c-0.8,0-1.6,0.3-2.2,0.8c-0.6,0.6-0.9,1.3-1,2.1c0,0.8-0.1,1.6-0.1,2.1
	c0,0.1,0,0.1,0.1,0.1c0,0,0,0,0,0h6.4c0.1,0,0.1,0,0.1-0.1c0,0,0,0,0,0c0-0.6,0-1.3-0.1-2.1c-0.1-0.8-0.4-1.6-1-2.1
	C159.8,414.8,159,414.5,158.2,414.5z M171.7,428.4c-1.3,0.1-2.7-0.3-3.8-1.1c-0.9-0.7-1.4-1.7-1.4-2.9v-0.3c0-0.1,0.1-0.3,0.2-0.3
	c0,0,0,0,0.1,0h1.5c0.1,0,0.3,0.1,0.3,0.2c0,0,0,0,0,0.1v0.2c0,0.7,0.3,1.3,0.9,1.7c0.6,0.5,1.4,0.7,2.2,0.7c0.8,0,1.5-0.2,2.2-0.7
	c0.5-0.4,0.8-1.1,0.8-1.8c0-0.5-0.1-0.9-0.5-1.3c-0.3-0.3-0.7-0.6-1.1-0.8c-0.4-0.2-1.1-0.4-1.8-0.7c-0.8-0.3-1.6-0.6-2.4-1
	c-0.6-0.3-1.2-0.8-1.6-1.4c-0.5-0.6-0.7-1.4-0.7-2.2c0-1.2,0.5-2.3,1.4-3.1c1-0.8,2.3-1.2,3.6-1.1c1.3-0.1,2.6,0.4,3.7,1.2
	c0.9,0.7,1.4,1.9,1.4,3v0.1c0,0.1-0.1,0.3-0.2,0.3c0,0,0,0-0.1,0H175c-0.1,0-0.3-0.1-0.3-0.2c0,0,0,0,0-0.1v-0.1
	c0-0.7-0.3-1.3-0.8-1.7c-0.6-0.5-1.4-0.7-2.2-0.7c-0.8,0-1.5,0.2-2.1,0.7c-0.5,0.4-0.8,1-0.8,1.7c0,0.6,0.3,1.2,0.8,1.6
	c0.8,0.5,1.6,0.9,2.5,1.1c0.8,0.3,1.7,0.6,2.5,1c0.6,0.3,1.2,0.8,1.7,1.3c0.5,0.6,0.7,1.4,0.7,2.2c0,1.2-0.5,2.3-1.4,3.1
	C174.4,428.1,173,428.5,171.7,428.4z M185.3,426.6c0.7,0,1.4-0.2,2-0.6c0.6-0.4,1-0.9,1.2-1.6c0-0.2,0.2-0.3,0.3-0.2c0,0,0,0,0,0
	l1.4,0.3c0.1,0,0.2,0.1,0.2,0.1c0,0.1,0,0.2,0,0.2c-0.3,1.1-1,2-1.9,2.7c-1,0.7-2.1,1-3.3,1c-1.3,0.1-2.6-0.4-3.6-1.2
	c-0.9-0.8-1.6-1.9-1.7-3.2c-0.1-0.6-0.1-1.2-0.2-1.8c0-0.7,0-1.3,0-1.7v-1c0-0.8,0-1.7,0.1-2.5c0.1-1.3,0.7-2.4,1.7-3.3
	c1-0.8,2.3-1.3,3.6-1.2c1.4-0.1,2.7,0.4,3.8,1.3c1,0.9,1.6,2.2,1.6,3.5c0.1,0.7,0.1,1.9,0.1,3.7c0,0.1-0.1,0.3-0.2,0.3
	c0,0,0,0-0.1,0h-8.4c-0.1,0-0.1,0-0.1,0.1c0,0,0,0,0,0c0,0.6,0,1.3,0.1,2.1c0.1,0.8,0.4,1.6,1,2.1
	C183.7,426.3,184.5,426.6,185.3,426.6z M185.2,414.5c-0.8,0-1.6,0.3-2.2,0.8c-0.6,0.6-0.9,1.3-1,2.1c0,0.8-0.1,1.6-0.1,2.1
	c0,0.1,0,0.1,0.1,0.1c0,0,0,0,0,0h6.4c0.1,0,0.1,0,0.1-0.1c0,0,0,0,0,0c0-0.6,0-1.3-0.1-2.1c-0.1-0.8-0.4-1.6-1-2.1
	C186.8,414.8,186.1,414.5,185.2,414.5z M199.6,426.6c0.7,0,1.4-0.2,2-0.6c0.6-0.4,1-0.9,1.2-1.6c0-0.2,0.2-0.3,0.3-0.2c0,0,0,0,0,0
	l1.4,0.3c0.1,0,0.2,0.1,0.2,0.1c0,0.1,0,0.2,0,0.2c-0.3,1.1-1,2-1.9,2.7c-1,0.7-2.1,1-3.3,1c-1.3,0.1-2.6-0.4-3.6-1.2
	c-0.9-0.8-1.6-1.9-1.7-3.2c-0.1-0.6-0.1-1.2-0.2-1.8c0-0.7,0-1.3,0-1.7v-1c0-0.8,0-1.7,0.1-2.5c0.1-1.3,0.7-2.4,1.7-3.3
	c1-0.8,2.3-1.3,3.6-1.2c1.4-0.1,2.7,0.4,3.8,1.3c1,0.9,1.6,2.2,1.6,3.5c0.1,0.7,0.1,1.9,0.1,3.7c0,0.1-0.1,0.3-0.2,0.3
	c0,0,0,0-0.1,0h-8.4c-0.1,0-0.1,0-0.1,0.1c0,0,0,0,0,0c0,0.6,0,1.3,0.1,2.1c0.1,0.8,0.4,1.6,1,2.1
	C197.9,426.3,198.7,426.6,199.6,426.6z M199.5,414.5c-0.8,0-1.6,0.3-2.2,0.8c-0.6,0.6-0.9,1.3-1,2.1c0,0.8-0.1,1.6-0.1,2.1
	c0,0.1,0,0.1,0.1,0.1c0,0,0,0,0,0h6.4c0.1,0,0.1,0,0.1-0.1c0,0,0,0,0,0c0-0.6,0-1.3-0.1-2.1c-0.1-0.8-0.4-1.6-1-2.1
	C201.1,414.8,200.3,414.5,199.5,414.5z M219.9,426.6c0.7,0,1.4-0.2,2-0.6c0.6-0.4,1-0.9,1.2-1.6c0-0.2,0.2-0.3,0.3-0.2c0,0,0,0,0,0
	l1.4,0.3c0.1,0,0.2,0.1,0.2,0.1c0,0.1,0,0.2,0,0.2c-0.3,1.1-1,2-1.9,2.7c-1,0.7-2.1,1-3.3,1c-1.3,0.1-2.6-0.4-3.6-1.2
	c-0.9-0.8-1.6-1.9-1.7-3.2c-0.1-0.6-0.1-1.2-0.2-1.8c0-0.7,0-1.3,0-1.7v-1c0-0.8,0-1.7,0.1-2.5c0.1-1.3,0.7-2.4,1.7-3.3
	c1-0.8,2.3-1.3,3.6-1.2c1.4-0.1,2.7,0.4,3.8,1.3c1,0.9,1.6,2.2,1.6,3.5c0.1,0.7,0.1,1.9,0.1,3.7c0,0.1-0.1,0.3-0.2,0.3
	c0,0,0,0-0.1,0h-8.4c-0.1,0-0.1,0-0.1,0.1c0,0,0,0,0,0c0,0.6,0,1.3,0.1,2.1c0.1,0.8,0.4,1.6,1,2.1
	C218.2,426.3,219,426.6,219.9,426.6z M219.8,414.5c-0.8,0-1.6,0.3-2.2,0.8c-0.6,0.6-0.9,1.3-1,2.1c0,0.8-0.1,1.6-0.1,2.1
	c0,0.1,0,0.1,0.1,0.1c0,0,0,0,0,0h6.4c0.1,0,0.1,0,0.1-0.1c0,0,0,0,0,0c0-0.6,0-1.3-0.1-2.1c-0.1-0.8-0.4-1.6-1-2.1
	C221.4,414.8,220.6,414.5,219.8,414.5z M229.9,428.2c-0.5,0-0.9-0.2-1.2-0.5c-0.3-0.3-0.5-0.8-0.5-1.2c0-0.5,0.2-0.9,0.5-1.2
	c0.3-0.3,0.8-0.5,1.2-0.5c0.5,0,0.9,0.2,1.2,0.5c0.3,0.3,0.5,0.8,0.5,1.2c0,0.5-0.2,0.9-0.5,1.2C230.8,428,230.4,428.2,229.9,428.2z
	 M239.9,428.2c-0.2,0-0.3-0.1-0.3-0.3l-5.5-20.6l0-0.1c0-0.2,0.1-0.2,0.3-0.2h1.6c0.2,0,0.3,0.1,0.3,0.2c0,0,0,0,0,0l4.4,17.3
	c0,0,0,0.1,0.1,0.1s0,0,0.1-0.1l4.4-17.3c0-0.2,0.2-0.3,0.3-0.3h1.6c0.1,0,0.2,0,0.2,0.1c0.1,0.1,0.1,0.2,0,0.2l-5.5,20.6
	c0,0.2-0.2,0.3-0.3,0.3H239.9z M250.7,428.2c-0.5,0-0.9-0.2-1.2-0.5c-0.3-0.3-0.5-0.8-0.5-1.2c0-0.5,0.2-0.9,0.5-1.2
	c0.3-0.3,0.8-0.5,1.2-0.5c0.5,0,0.9,0.2,1.2,0.5c0.3,0.3,0.5,0.8,0.5,1.2c0,0.5-0.2,0.9-0.5,1.2C251.6,428,251.2,428.2,250.7,428.2z
	 M267,428.4c-1.3,0.1-2.7-0.3-3.8-1.1c-0.9-0.7-1.4-1.7-1.4-2.9v-0.3c0-0.1,0.1-0.3,0.2-0.3c0,0,0,0,0.1,0h1.5
	c0.1,0,0.3,0.1,0.3,0.2c0,0,0,0,0,0.1v0.2c0,0.7,0.3,1.3,0.9,1.7c0.6,0.5,1.4,0.7,2.2,0.7c0.8,0,1.5-0.2,2.2-0.7
	c0.5-0.4,0.8-1.1,0.8-1.8c0-0.5-0.1-0.9-0.5-1.3c-0.3-0.3-0.7-0.6-1.1-0.8c-0.4-0.2-1.1-0.4-1.8-0.7c-0.8-0.3-1.6-0.6-2.4-1
	c-0.6-0.3-1.2-0.8-1.6-1.3c-0.5-0.6-0.7-1.4-0.7-2.2c0-1.2,0.5-2.3,1.4-3.1c1-0.8,2.3-1.2,3.6-1.1c1.3-0.1,2.6,0.4,3.7,1.2
	c0.9,0.7,1.4,1.9,1.4,3v0.1c0,0.1-0.1,0.3-0.2,0.3c0,0,0,0-0.1,0h-1.4c-0.1,0-0.3-0.1-0.3-0.2c0,0,0,0,0-0.1v-0.1
	c0-0.7-0.3-1.3-0.8-1.7c-0.6-0.5-1.4-0.7-2.2-0.7c-0.8,0-1.5,0.2-2.1,0.7c-0.5,0.4-0.8,1-0.8,1.7c0,0.6,0.3,1.2,0.8,1.6
	c0.8,0.5,1.6,0.9,2.5,1.2c0.8,0.3,1.7,0.6,2.5,1c0.6,0.3,1.2,0.8,1.7,1.3c0.5,0.6,0.7,1.4,0.7,2.2c0,1.2-0.5,2.3-1.4,3.1
	C269.7,428.1,268.3,428.5,267,428.4z M280.6,426.6c0.7,0,1.4-0.2,2-0.6c0.6-0.4,1-0.9,1.2-1.6c0-0.2,0.2-0.3,0.3-0.2c0,0,0,0,0,0
	l1.4,0.3c0.1,0,0.2,0.1,0.2,0.1c0,0.1,0,0.2,0,0.2c-0.3,1.1-1,2-1.9,2.7c-1,0.7-2.1,1-3.3,1c-1.3,0.1-2.6-0.4-3.6-1.2
	c-0.9-0.8-1.6-1.9-1.7-3.2c-0.1-0.6-0.1-1.2-0.2-1.8c0-0.7,0-1.3,0-1.7v-1c0-0.8,0-1.7,0.1-2.5c0.1-1.3,0.7-2.4,1.7-3.3
	c1-0.8,2.3-1.3,3.6-1.2c1.4-0.1,2.7,0.4,3.8,1.3c1,0.9,1.6,2.2,1.6,3.5c0.1,0.7,0.1,1.9,0.1,3.7c0,0.1-0.1,0.3-0.2,0.3
	c0,0,0,0-0.1,0h-8.4c-0.1,0-0.1,0-0.1,0.1c0,0,0,0,0,0c0,0.6,0,1.3,0.1,2.1c0.1,0.8,0.4,1.6,1,2.1
	C279,426.3,279.8,426.6,280.6,426.6z M280.5,414.5c-0.8,0-1.6,0.3-2.2,0.8c-0.6,0.6-0.9,1.3-1,2.1c0,0.8-0.1,1.6-0.1,2.1
	c0,0.1,0,0.1,0.1,0.1c0,0,0,0,0,0h6.4c0.1,0,0.1,0,0.1-0.1c0,0,0,0,0,0c0-0.6,0-1.3-0.1-2.1c-0.1-0.8-0.4-1.6-1-2.1
	C282.1,414.8,281.4,414.5,280.5,414.5L280.5,414.5z M291.1,410.1c-0.5,0-0.9-0.2-1.2-0.5c-0.3-0.3-0.5-0.8-0.5-1.2
	c0-0.5,0.2-0.9,0.5-1.2c0.3-0.3,0.8-0.5,1.2-0.5c0.5,0,0.9,0.2,1.2,0.5c0.3,0.3,0.5,0.8,0.5,1.2c0,0.5-0.2,0.9-0.5,1.2
	C292,410,291.5,410.1,291.1,410.1z M290.3,428.2c-0.1,0-0.3-0.1-0.3-0.2c0,0,0,0,0-0.1v-14.7c0-0.1,0.1-0.3,0.2-0.3c0,0,0,0,0.1,0
	h1.5c0.1,0,0.3,0.1,0.3,0.2c0,0,0,0,0,0.1v14.7c0,0.1-0.1,0.3-0.2,0.3c0,0,0,0-0.1,0L290.3,428.2z M302.9,414.3
	c0,0.1-0.1,0.3-0.2,0.3c0,0,0,0-0.1,0h-2.9c-0.1,0-0.1,0-0.1,0.1c0,0,0,0,0,0v9.1c-0.1,0.7,0.1,1.4,0.6,2c0.5,0.4,1.1,0.6,1.8,0.6
	h0.5c0.1,0,0.3,0.1,0.3,0.2c0,0,0,0,0,0.1v1.3c0,0.1-0.1,0.3-0.2,0.3c0,0,0,0-0.1,0l-0.9,0c-1.1,0.1-2.1-0.2-3-0.8
	c-0.8-0.8-1.2-1.9-1-3v-9.8c0-0.1,0-0.1-0.1-0.1c0,0,0,0,0,0h-1.5c-0.1,0-0.3-0.1-0.3-0.2c0,0,0,0,0-0.1v-1.1c0-0.1,0.1-0.3,0.2-0.3
	c0,0,0,0,0.1,0h1.5c0.1,0,0.1,0,0.1-0.1c0,0,0,0,0,0v-3.5c0-0.1,0.1-0.3,0.2-0.3c0,0,0,0,0.1,0h1.5c0.1,0,0.3,0.1,0.3,0.2
	c0,0,0,0,0,0.1v3.5c0,0.1,0,0.1,0.1,0.1c0,0,0,0,0,0h2.9c0.1,0,0.3,0.1,0.3,0.2c0,0,0,0,0,0.1L302.9,414.3z M314.8,407.1
	c0.1-0.1,0.3-0.1,0.4-0.1h1.6c0.1,0,0.3,0.1,0.3,0.2c0,0,0,0,0,0.1v20.6c0,0.1-0.1,0.3-0.2,0.3c0,0,0,0-0.1,0h-1.5
	c-0.1,0-0.3-0.1-0.3-0.2c0,0,0,0,0-0.1v-18.4c0,0,0-0.1,0-0.1c0,0-0.1,0-0.1,0l-3,1.1c0,0-0.1,0-0.2,0c-0.1,0-0.2-0.1-0.2-0.2
	l-0.2-1.1v-0.1c0-0.1,0.1-0.2,0.2-0.3L314.8,407.1z M331.1,410.5c0.3,0.9,0.5,1.9,0.5,2.9v9.7c0.1,1.4-0.5,2.8-1.5,3.9
	c-1,1-2.4,1.5-3.9,1.4c-1.4,0.1-2.7-0.5-3.7-1.4c-1-1-1.5-2.4-1.4-3.8v-0.5c0-0.1,0.1-0.3,0.2-0.3c0,0,0,0,0.1,0h1.5
	c0.1,0,0.3,0.1,0.3,0.2c0,0,0,0,0,0.1v0.3c0,0.9,0.3,1.8,0.8,2.5c0.5,0.6,1.3,1,2.2,0.9c0.9,0,1.7-0.3,2.3-1c0.6-0.7,1-1.6,0.9-2.6
	v-4.4c0,0,0-0.1-0.1-0.1c0,0-0.1,0-0.1,0c0,0,0,0,0,0c-0.4,0.5-0.9,1-1.5,1.3c-0.6,0.3-1.3,0.4-2,0.4c-1.1,0-2.2-0.3-3-0.9
	c-0.8-0.7-1.4-1.6-1.7-2.7c-0.3-1-0.5-2-0.4-3.1c0-0.9,0.1-1.8,0.3-2.6c0.2-1.2,0.9-2.2,1.8-3c1-0.7,2.1-1.1,3.3-1.1
	c1.2,0,2.3,0.3,3.2,1C330.2,408.5,330.8,409.4,331.1,410.5L331.1,410.5z M326.1,418.5c0.7,0,1.4-0.2,1.9-0.7
	c0.5-0.5,0.9-1.1,1.1-1.8c0.2-0.8,0.3-1.6,0.3-2.4c0-0.7-0.1-1.5-0.2-2.2c-0.1-0.7-0.5-1.4-1.1-1.9c-0.6-0.5-1.3-0.7-2-0.7
	c-0.7,0-1.5,0.2-2,0.7c-0.6,0.5-1,1.3-1.1,2c-0.1,0.7-0.2,1.4-0.2,2.2c0,0.8,0.1,1.7,0.3,2.5c0.2,0.7,0.5,1.3,1.1,1.8
	C324.7,418.3,325.4,418.5,326.1,418.5z M345.3,419.1c0.4,1,0.6,2.1,0.6,3.2c0,1.1-0.2,2.2-0.7,3.2c-0.4,0.9-1,1.7-1.8,2.2
	c-0.9,0.5-1.9,0.8-2.9,0.8c-1,0-2-0.3-2.9-0.8c-0.8-0.5-1.5-1.3-1.9-2.2c-0.4-1-0.7-2.1-0.6-3.2c0-1.1,0.2-2.1,0.6-3.2
	c0.4-0.9,1.1-1.7,2-2.1c0.1,0,0.1-0.1,0-0.2c-0.7-0.4-1.2-0.9-1.6-1.6c-0.6-0.9-0.8-2-0.8-3c0-1.1,0.2-2.1,0.8-3.1
	c0.4-0.8,1.1-1.4,1.8-1.8c0.8-0.4,1.8-0.7,2.7-0.7c0.9,0,1.9,0.2,2.7,0.6c0.8,0.4,1.4,1,1.8,1.8c0.5,0.9,0.8,2,0.8,3.1
	c0,1.1-0.3,2.1-0.8,3c-0.4,0.7-1,1.2-1.6,1.6c-0.1,0.1-0.1,0.1,0,0.2C344.3,417.4,344.9,418.2,345.3,419.1L345.3,419.1z
	 M337.8,410.3c-0.3,0.6-0.5,1.3-0.5,2c0,0.8,0.2,1.6,0.5,2.2c0.2,0.5,0.6,0.9,1.1,1.1c0.5,0.3,1,0.4,1.5,0.4c0.6,0,1.1-0.1,1.6-0.4
	c0.5-0.3,0.8-0.7,1.1-1.2c0.3-0.7,0.5-1.4,0.5-2.2c0-0.7-0.1-1.4-0.5-2c-0.2-0.5-0.6-0.9-1.1-1.2c-0.5-0.3-1.1-0.5-1.6-0.4
	c-0.6,0-1.1,0.1-1.6,0.5C338.4,409.4,338,409.8,337.8,410.3L337.8,410.3z M343.3,424.7c0.3-0.8,0.5-1.7,0.5-2.5
	c0-0.8-0.1-1.7-0.4-2.5c-0.2-0.6-0.6-1.1-1.1-1.4c-0.5-0.3-1.1-0.5-1.8-0.5c-1.3-0.1-2.4,0.7-2.8,1.9c-0.3,0.8-0.4,1.6-0.4,2.5
	c0,0.9,0.1,1.7,0.5,2.5c0.2,0.6,0.6,1.1,1.1,1.4c0.5,0.3,1.1,0.5,1.7,0.5C341.8,426.6,342.9,425.9,343.3,424.7z M360.7,420.5
	c0.1,0,0.3,0.1,0.3,0.2c0,0,0,0,0,0.1v1.3c0,0.1-0.1,0.3-0.2,0.3c0,0,0,0-0.1,0h-1.1c-0.1,0-0.1,0-0.1,0.1c0,0,0,0,0,0v5.4
	c0,0.1-0.1,0.3-0.2,0.3c0,0,0,0-0.1,0h-1.5c-0.1,0-0.3-0.1-0.3-0.2c0,0,0,0,0-0.1v-5.4c0-0.1,0-0.1-0.1-0.1c0,0,0,0,0,0H349
	c-0.1,0-0.3-0.1-0.3-0.2c0,0,0,0,0-0.1V421c0-0.1,0-0.2,0.1-0.4l5.4-13.3c0-0.1,0.2-0.2,0.3-0.2h1.7c0.1,0,0.2,0,0.2,0.1
	c0,0.1,0,0.2,0,0.3l-5.2,12.9c0,0,0,0.1,0,0.1c0,0,0.1,0,0.1,0h5.9c0.1,0,0.1,0,0.1-0.1c0,0,0,0,0,0v-4.8c0-0.1,0.1-0.3,0.2-0.3
	c0,0,0,0,0.1,0h1.5c0.1,0,0.3,0.1,0.3,0.2c0,0,0,0,0,0.1v4.8c0,0.1,0,0.1,0.1,0.1c0,0,0,0,0,0L360.7,420.5z"/>
</svg>
