<?xml version="1.0" encoding="utf-8"?>
<!-- Generator: Adobe Illustrator 24.1.2, SVG Export Plug-In . SVG Version: 6.00 Build 0)  -->
<svg version="1.1" id="Komponente_5_1" xmlns="http://www.w3.org/2000/svg" xmlns:xlink="http://www.w3.org/1999/xlink" x="0px"
	 y="0px" viewBox="0 0 86.6 208" style="enable-background:new 0 0 86.6 208;" xml:space="preserve">
<style type="text/css">
	.st0{fill:#EF485B;}
</style>
<path id="Pfad_18" class="st0" d="M82.4,140.2c0.7-2.2-0.5-2.5-0.5-4.4s-2.3-3.3-5.2-3.2s-3.9,2.1-3.6,5.2c0.3,2.8,1.4,3.8,1.9,5.7
	c0.2,1,0,1.9-0.5,2.8c0,0-0.3-0.1-0.7-0.3c-0.8-0.4-1.7-0.7-2.6-1c-2.5-0.4-5-0.6-7.6-0.7c-1.7,0-5.9-0.4-5.9-0.4s0.5-2.6-1.1-3.9
	c-1.3-0.9-2.8-1.6-4.3-2.1c0,0,3-15,4.2-49.3S39.6,0,39.6,0l-2,1.3L36.3,1l-0.6,1.3c0,0-1.4,0.4-6.4,1.5S17.7,8.6,17.7,8.6
	c-0.6,3.6-0.9,7.3-1,11c0,4.8-2.9,27.8-4.1,41.1s-4.1,41.3-5.2,53.6S3.5,163,3.5,163L0,166.7c1.4,1.2,2.5,2.7,3.1,4.5
	c6.3,18.2,23.3,21.9,26.8,22.4c-6,2.2-10.9,6.6-13.7,12.3c-0.4,1.1-1.4,2.9,2.4,1.6s12.6,0.1,21.5-2.7c7.6-1.4,14.1-2.1,14.1-2.1
	s0.8,0.8,1.5-2.3c0.3-1.9-0.4-3.7-2-4.8c2.6-1.4,5.1-3,7.5-4.8c5-3.5,4-5.9,5.4-8.3s9.4-7.1,9.4-7.1s1.9,0,4.2-3.6
	c5.3-7.1,5.4-12.7,5.8-15.7c2.1-8-1.4-11-2.9-11.9S82.3,141.7,82.4,140.2L82.4,140.2z M49.4,155.9l7.7,1.5c0,0,10,3.1,9.9,4.4
	c-1.3,1.4-1.7,2.3-0.3,4.2c-1.7,1.9-8.3,8.6-9.3,10.8c-1.9,2.3-4.5,3.4-4.3,7c-1.8,2.9-3.4,5.8-4.9,8.9c-2.6-1-5.4-1.4-8.1-1.2
	c0.7-2.4,0.2-0.6,1.9-7.1S49.4,155.9,49.4,155.9L49.4,155.9z M58.7,156.6l1.9-0.4l4.2,3.5L58.7,156.6L58.7,156.6z M53.1,153.8
	l-1-0.7l2.5-1.7l2.1,1.3L53.1,153.8L53.1,153.8z M56.6,143.8c-0.4,0.7-1.8,1.2-0.2,2.7c-1.3,2.7-3.6,4.7-6.4,5.7
	c0.2-2.3,2.2-11.1,2.2-11.1S55.7,142,56.6,143.8L56.6,143.8z M67.8,149.3c0,0-3.6,2.3-5.5,2.5l-4.5,0.5l-1.9-1.9l1.5-2
	c0,0,3.2-2.2,4.9-1.8C64.2,147.3,66.1,148.2,67.8,149.3z M70.1,157.5c-1,2.2-1.7,4.2-1.7,4.2s-5.2-5.3-6.7-6l7.6-1.2
	c1.1,0.6,1.4,1.9,0.9,3C70.2,157.4,70.2,157.4,70.1,157.5L70.1,157.5z"/>
</svg>
