<?xml version="1.0" encoding="utf-8"?>
<!-- Generator: Adobe Illustrator 24.3.0, SVG Export Plug-In . SVG Version: 6.00 Build 0)  -->
<svg version="1.1" id="Komponente_4_1" xmlns="http://www.w3.org/2000/svg" xmlns:xlink="http://www.w3.org/1999/xlink" x="0px"
	 y="0px" viewBox="0 0 57.8 9.3" style="enable-background:new 0 0 57.8 9.3;" xml:space="preserve">
<style type="text/css">
	.st0{fill:#EF485B;}
	.st1{fill:#EF8348;}
</style>
<path id="Pfad_15" class="st0" d="M9.6,0C9.4,0,9.3,0,9.1,0C8.3,0.2,7.5,0.6,6.9,1.2C4.7,3.4,2.6,5.5,0.4,7.7C0.3,7.8,0.2,7.9,0.2,8
	C0,8.3,0,8.7,0.2,9s0.6,0.4,0.9,0.3C1.3,9.2,1.5,9.1,1.7,9C3.8,6.7,6,4.6,8.2,2.4C8.3,2.2,8.5,2.1,8.7,2c0.7-0.4,1.7-0.3,2.3,0.4
	c1.8,1.8,3.6,3.6,5.4,5.4C16.5,8,16.8,8.2,17,8.4c0.8,0.7,1.9,0.9,2.9,0.7c0.8-0.2,1.4-0.5,2-1.1c1.9-1.9,3.7-3.7,5.6-5.6
	C27.9,2,28.4,1.7,29,1.7c0.5,0,1,0.3,1.3,0.7C32.2,4.3,34,6.1,35.9,8c0.9,1,2.2,1.4,3.5,1.1c0.7-0.2,1.3-0.5,1.8-1.1
	c1.9-1.9,3.8-3.8,5.7-5.7c0.7-0.8,1.9-0.8,2.7,0l0,0c2.2,2.2,4.4,4.4,6.6,6.6L56.3,9c0.3,0.3,0.8,0.3,1.2,0.1
	c0.3-0.3,0.4-0.8,0.1-1.2l0,0c-0.1-0.1-0.2-0.2-0.2-0.3c-2-2-4.1-4.1-6.1-6.1C51,1.3,50.7,1,50.4,0.8c-0.7-0.6-1.7-0.9-2.7-0.8
	c-0.8,0.1-1.6,0.5-2.1,1.1C43.7,3,41.9,4.9,40,6.8c-0.4,0.5-1.1,0.7-1.7,0.6c-0.4-0.1-0.8-0.3-1-0.6c-1.9-1.9-3.8-3.8-5.7-5.7
	c-0.8-0.9-2-1.3-3.2-1.1c-0.8,0.1-1.4,0.5-2,1.1c-1.9,1.9-3.8,3.8-5.7,5.7c-0.4,0.5-1.1,0.7-1.7,0.6c-0.4-0.1-0.8-0.3-1.1-0.6
	c-2-1.9-3.9-3.8-5.8-5.7C11.5,0.4,10.5,0,9.6,0z"/>
<path id="Pfad_16" class="st1" d="M9.6,0c1,0,1.9,0.4,2.6,1.1C14,3,15.9,4.9,17.8,6.8c0.3,0.3,0.7,0.5,1.1,0.6
	c0.6,0.1,1.3-0.1,1.7-0.6c1.9-1.9,3.8-3.8,5.7-5.7c0.5-0.6,1.2-0.9,2-1.1c1.2-0.2,2.4,0.2,3.2,1.1c1.9,1.9,3.8,3.8,5.7,5.7
	c0.3,0.3,0.6,0.5,1,0.6c0.6,0.1,1.3-0.1,1.7-0.6c1.9-1.9,3.8-3.8,5.7-5.6c0.6-0.6,1.3-1,2.1-1.1c1-0.1,1.9,0.1,2.7,0.8
	C50.7,1,51,1.3,51.2,1.5c2,2,4.1,4.1,6.1,6.1c0.1,0.1,0.2,0.2,0.2,0.3c0.3,0.3,0.3,0.9,0,1.2l0,0c-0.4,0.3-0.9,0.3-1.2-0.1
	c-0.1,0-0.1-0.1-0.1-0.1c-2.2-2.2-4.4-4.4-6.6-6.6c-0.7-0.8-1.9-0.8-2.7,0l0,0c-1.9,2-3.8,3.8-5.7,5.7c-0.5,0.5-1.1,0.9-1.8,1.1
	C38.1,9.4,36.8,9,35.9,8c-1.9-1.9-3.7-3.7-5.6-5.6C30,2,29.5,1.8,29,1.7c-0.6,0-1.1,0.2-1.5,0.6c-1.9,1.9-3.7,3.7-5.6,5.6
	c-0.5,0.6-1.2,1-2,1.1c-1,0.2-2.1,0-2.9-0.7c-0.3-0.2-0.5-0.5-0.7-0.7c-1.8-1.8-3.6-3.6-5.4-5.4C10.4,1.7,9.4,1.5,8.7,2
	C8.5,2.1,8.3,2.2,8.2,2.4C6,4.6,3.8,6.7,1.6,8.9C1.5,9.1,1.3,9.2,1,9.3C0.7,9.4,0.4,9.3,0.2,9S0,8.3,0.2,8c0.1-0.1,0.2-0.2,0.3-0.3
	C2.7,5.5,4.8,3.4,7,1.2c0.6-0.6,1.4-1,2.2-1.2C9.3,0,9.4,0,9.6,0z"/>
</svg>
